<svg version="1.1" xmlns="http://www.w3.org/2000/svg" style="display: block;" viewBox="0 0 2048 2048" width="1024" height="1024" preserveAspectRatio="none">
<path transform="translate(0,0)" fill="rgb(235,74,38)" d="M 1461.21 633.359 C 1501.15 627.669 1513.22 657.006 1509.67 691.058 C 1505.36 732.452 1493.82 780.271 1473.48 816.788 C 1425.78 902.399 1340.5 958.358 1246.06 979.849 C 1241.44 980.902 1222.63 984.212 1220.51 987.308 C 1208.73 1004.51 1185.48 1068.89 1177.8 1084.4 C 1241.36 1104.85 1276.27 1183.32 1263.81 1246.27 C 1247.86 1326.87 1180.09 1382 1097.98 1381.94 C 1082.91 1381.93 1068.8 1379.12 1054.01 1378.7 C 1049.57 1387.07 1045.18 1399.38 1041.34 1408.62 C 1026.85 1442.44 1013.96 1480.94 992.75 1511.19 C 949.956 1572.21 867.471 1577.21 810.573 1533.16 C 786.366 1514.59 770.737 1486.98 767.264 1456.67 C 761.126 1405.74 791.593 1362.72 843.639 1357.31 C 890 1359 920.638 1394.45 908.94 1441.08 C 901.274 1471.64 867.321 1489.27 837.687 1484.53 C 832.444 1483.69 819.921 1475.16 815.842 1477.5 C 814.344 1482.07 815.756 1485.7 818.098 1489.87 C 828.735 1508.79 844.627 1521.35 865.124 1527.77 C 887.319 1534.78 911.391 1532.66 932.02 1521.88 C 944.605 1515.19 956.908 1504.56 965.493 1493.18 C 981.313 1472.23 1014.4 1396.04 1022.42 1369.64 C 1001.25 1360.43 981.057 1350.67 963.343 1335.91 C 921.797 1302.36 900.775 1269.24 886.51 1218.12 C 867.839 1151.22 881.439 1074.49 924.916 1019.45 C 981.831 947.399 1080.1 918.835 1166.83 903.187 C 1183.65 900.154 1203.85 895.474 1220.76 893.901 C 1224.18 880.842 1230.62 868.058 1235.75 855.722 C 1260.99 795.01 1288.2 735.856 1339.94 692.88 C 1375.81 663.08 1413.56 639.239 1461.21 633.359 z M 1147.24 1075.75 C 1151.97 1062.27 1180.18 998.648 1179.31 992.397 C 1175.74 991.83 1175.67 991.921 1172.25 992.276 C 1146.84 996.993 1118.08 1000.92 1093.17 1007 C 1038.56 1021.02 980.181 1046.57 946.926 1094.03 C 920.425 1131.86 911.834 1173.36 920.814 1218.47 C 931.497 1272.13 983.752 1323.27 1034.89 1339.89 C 1044.85 1319.22 1054.45 1293.3 1063.96 1271.77 C 1068.09 1262.42 1082.71 1230.53 1085.19 1222.7 C 1095.89 1198.01 1108.49 1170.36 1118.14 1145.44 C 1091.23 1141.16 1066.71 1141.81 1044.66 1157.72 C 1016.53 1178.02 1006.94 1206.93 1013.34 1240.17 C 1015.04 1248.95 1021.77 1260.52 1020.32 1268.13 C 1012.99 1275.4 1003.06 1261.16 999.757 1255.58 C 940.887 1156.13 1035.9 1053.36 1140.81 1074.3 C 1142.96 1074.74 1145.11 1075.22 1147.24 1075.75 z M 1259.79 886.046 C 1271.89 883.065 1288.93 881.586 1298.76 878.453 C 1333.37 871.081 1379.58 849.26 1407.51 828.251 C 1427.26 813.393 1468.23 771.709 1460.73 743.581 C 1454.88 721.639 1438.5 719.634 1418.99 720.386 C 1366.74 730.624 1325.8 770.777 1296.58 813.26 C 1276.08 843.08 1272.66 854.683 1259.79 886.046 z M 1067.91 1350.1 C 1082.89 1350.58 1096.61 1350.66 1111.36 1346.84 C 1138.01 1339.92 1164.85 1317.9 1179.21 1294.86 C 1194.73 1269.95 1197.44 1242.38 1189.52 1214.35 C 1181.98 1187.68 1168.02 1173.22 1146.21 1157.35 C 1128.54 1198.76 1111.13 1240.27 1093.96 1281.89 C 1086.58 1299.73 1071.4 1332.5 1067.91 1350.1 z"/>
<path transform="translate(0,0)" fill="rgb(235,74,38)" d="M 473.08 403.779 C 482.074 418.863 488.471 431.521 499.104 446.066 C 568.432 540.903 694.082 604.506 802.906 642.888 C 804.289 677.183 803.126 719.995 803.128 754.768 L 803.464 918.157 C 791.301 917.872 781.391 918.74 769.413 920.53 C 754.878 913.263 742.661 901.568 725.18 893.584 C 672.509 869.529 617.433 851.374 570.53 816.543 C 567.97 814.708 565.44 812.833 562.94 810.918 C 519.221 777.326 487.457 733.404 473.764 679.524 C 470.128 665.218 468.222 648.159 466.286 633.321 C 503.811 676.246 551.376 709.217 604.739 729.293 C 614.645 733.078 671.199 753.413 677.888 750.43 C 676.423 748.244 629.59 722.503 623.095 718.538 C 508.631 648.643 435.697 542.621 473.08 403.779 z"/>
<path transform="translate(0,0)" fill="rgb(4,180,210)" d="M 1542.43 655.949 C 1562.96 661.926 1586.33 685.359 1599.65 701.869 C 1643.4 703.113 1675.8 710.054 1711.85 735.114 C 1689.93 737.914 1656.16 744.895 1635.97 753.646 C 1619.46 760.804 1579.2 786.56 1567.79 798.555 C 1508.07 861.385 1500.03 954.111 1483.1 1035.22 C 1473.86 1081.71 1460.24 1127.22 1442.41 1171.15 C 1401 1273.06 1332.29 1342.47 1231.29 1385.17 C 1224.55 1387.8 1173.76 1404.07 1169.79 1403.38 L 1169.82 1402.26 C 1196.96 1395.81 1233.17 1369.57 1251.87 1349.37 C 1283.76 1314.93 1307.27 1259.42 1304.2 1212.01 C 1301.38 1168.53 1281.65 1120.83 1249.85 1090.33 C 1241.58 1082.4 1232.37 1077.1 1223.94 1069.55 L 1223.07 1068.77 C 1227.44 1054.51 1237.91 1030.58 1243.65 1015.72 C 1396.15 982.746 1519.49 878.659 1543.44 717.815 C 1545.81 701.871 1547.32 670.946 1542.43 655.949 z"/>
<path transform="translate(0,0)" fill="rgb(4,180,210)" d="M 889.337 408.65 C 894.799 419.026 898.25 431.574 903.419 442.553 C 918.104 473.046 936.683 501.505 958.693 527.216 C 1005.83 581.703 1065.31 623.87 1120.24 669.721 C 1166.46 708.304 1201.23 757.462 1213.68 817.271 C 1206.12 833.159 1201.16 848.024 1195.58 864.656 C 1178.61 865.805 1163.44 868.788 1146.78 872.159 C 1136.11 875.383 1124.97 876.411 1114.26 878.937 C 1099.74 882.359 1083.59 886.9 1069.53 891.803 C 1080.64 782.669 1024.67 701.997 927 657.095 C 900.822 645.06 873.045 632.381 845.416 624.345 C 844.808 621.243 844.296 618.123 843.882 614.99 C 841.475 596.13 841.866 571.554 841.615 552.476 C 840.981 504.436 859.944 446.324 889.337 408.65 z"/>
<path transform="translate(0,0)" fill="rgb(4,180,210)" d="M 844.729 1184.88 C 845.431 1185.86 850.301 1219.68 851.717 1224.63 C 857.897 1246.24 869.721 1274.93 880.502 1293.19 C 887 1304.2 909.507 1330.1 910.422 1335.09 L 908.642 1337.23 C 902.166 1339.66 894.024 1334.99 887.662 1332.41 C 808.975 1300.55 737.428 1359.49 731.889 1439.26 C 721.92 1452.8 692.864 1481.82 679.532 1494.57 C 624.754 1546.95 557.297 1612.36 481.716 1630.45 C 442.965 1639.72 407.64 1627.25 375.321 1606.72 C 390.602 1603.19 409.223 1593.52 423.944 1587.72 C 494.502 1559.94 559.205 1530.4 621.788 1486.81 C 651.255 1462.68 673.783 1448.55 699.009 1418.28 C 651.581 1451.62 602.689 1482.02 550.402 1507.39 C 543.087 1510.94 532.901 1513.3 525.063 1516 C 497.048 1525.65 468.035 1534.16 438.199 1534.72 C 415.687 1535.19 385.124 1527.17 365.59 1515.86 C 357.214 1511.01 343.293 1497.09 336.232 1490.11 C 426.733 1476.63 521.834 1453 605.031 1415.74 C 686.96 1379.04 766.646 1324.11 813.058 1245.91 C 824.382 1226.83 836.985 1205.65 844.729 1184.88 z"/>
<path transform="translate(0,0)" fill="rgb(4,180,210)" d="M 838.024 657.184 C 848.472 660.256 861.959 665.385 872.088 669.309 C 875.149 673.903 879.097 681.675 881.781 686.71 C 911.199 741.892 981.271 753.96 1012.13 808.581 C 1025.33 831.872 1028.46 859.538 1020.8 885.189 C 1018.61 892.773 1010.19 913.442 1004.15 916.809 C 1003.07 913.995 1003.76 906.643 1003.68 903.059 C 1003.37 887.007 999.082 871.284 991.208 857.293 C 966.761 814.599 918.354 800.637 873.96 788.701 L 873.337 992.098 C 873.646 1006.68 874.185 1017.38 870.466 1031.88 C 864.437 1055.39 841.148 1075.83 820.99 1087.77 C 797.491 1101.81 756.619 1108.43 730.484 1099.83 C 654.394 1074.79 678.291 991.339 738.443 964.712 C 777.12 947.591 799.498 946.415 837.604 959.875 C 838.063 948.894 838.152 937.041 838.126 926.002 C 837.912 836.661 840.09 746.451 838.024 657.184 z"/>
<path transform="translate(0,0)" fill="rgb(235,74,38)" d="M 730.68 1459.61 C 732.666 1461.45 738.519 1487.4 739.686 1491.97 C 717.908 1531.53 672.109 1596.39 636.085 1622.98 C 610.873 1641.58 585.088 1647.87 554.114 1642.87 L 542.16 1640.02 C 556.698 1627.75 572.644 1615.46 587.515 1603.04 C 642.109 1557.45 685.301 1514.36 730.68 1459.61 z"/>
</svg>