<?xml version="1.0" encoding="UTF-8" standalone="no"?>
<svg
   version="1.1"
   style="display: block;"
   viewBox="0 0 2048 2048"
   width="1024"
   height="1024"
   preserveAspectRatio="none"
   id="svg7"
   sodipodi:docname="bluesix.svg"
   inkscape:version="1.4.3 (0d15f75, 2025-12-25)"
   xmlns:inkscape="http://www.inkscape.org/namespaces/inkscape"
   xmlns:sodipodi="http://sodipodi.sourceforge.net/DTD/sodipodi-0.dtd"
   xmlns:xlink="http://www.w3.org/1999/xlink"
   xmlns="http://www.w3.org/2000/svg"
   xmlns:svg="http://www.w3.org/2000/svg">
  <defs
     id="defs7">
    <linearGradient
       id="linearGradient38"
       inkscape:collect="always">
      <stop
         style="stop-color:#8ccfdf;stop-opacity:1;"
         offset="0"
         id="stop38" />
      <stop
         style="stop-color:#ffffff;stop-opacity:1;"
         offset="1"
         id="stop39" />
    </linearGradient>
    <linearGradient
       id="linearGradient26"
       inkscape:collect="always">
      <stop
         style="stop-color:#333333;stop-opacity:1;"
         offset="0"
         id="stop26" />
      <stop
         style="stop-color:#333333;stop-opacity:0;"
         offset="1"
         id="stop27" />
    </linearGradient>
    <inkscape:path-effect
       effect="fillet_chamfer"
       id="path-effect26"
       is_visible="true"
       lpeversion="1"
       nodesatellites_param="F,0,0,1,0,0,0,1 @ F,0,0,1,0,0,0,1 @ F,0,0,1,0,0,0,1 @ F,0,0,1,0,0,0,1 @ F,0,0,1,0,0,0,1 @ F,0,0,1,0,0,0,1 @ F,0,0,1,0,0,0,1 @ F,0,0,1,0,0,0,1"
       radius="0"
       unit="px"
       method="auto"
       mode="F"
       chamfer_steps="1"
       flexible="false"
       use_knot_distance="true"
       apply_no_radius="true"
       apply_with_radius="true"
       only_selected="false"
       hide_knots="false" />
    <inkscape:path-effect
       effect="fillet_chamfer"
       id="path-effect25"
       is_visible="true"
       lpeversion="1"
       nodesatellites_param="F,0,0,1,0,0,0,1 @ F,0,0,1,0,0,0,1 @ F,0,0,1,0,0,0,1 @ F,0,0,1,0,0,0,1"
       radius="0"
       unit="px"
       method="auto"
       mode="F"
       chamfer_steps="1"
       flexible="false"
       use_knot_distance="true"
       apply_no_radius="true"
       apply_with_radius="true"
       only_selected="false"
       hide_knots="false" />
    <linearGradient
       id="linearGradient23"
       inkscape:collect="always">
      <stop
         style="stop-color:#eb4a26;stop-opacity:1;"
         offset="0"
         id="stop22" />
      <stop
         style="stop-color:#eb3226;stop-opacity:0;"
         offset="1"
         id="stop23" />
    </linearGradient>
    <linearGradient
       id="linearGradient14"
       inkscape:collect="always">
      <stop
         style="stop-color:#59c4e0;stop-opacity:1;"
         offset="0"
         id="stop14" />
      <stop
         style="stop-color:#ffffff;stop-opacity:0.99999934;"
         offset="1"
         id="stop15" />
    </linearGradient>
    <linearGradient
       id="linearGradient7"
       inkscape:collect="always">
      <stop
         style="stop-color:#99ebfe;stop-opacity:1;"
         offset="0"
         id="stop7" />
      <stop
         style="stop-color:#ffffff;stop-opacity:1;"
         offset="1"
         id="stop8" />
    </linearGradient>
    <linearGradient
       inkscape:collect="always"
       xlink:href="#linearGradient7"
       id="linearGradient8"
       x1="1918.4637"
       y1="414.46759"
       x2="213.4384"
       y2="1173.9111"
       gradientUnits="userSpaceOnUse"
       gradientTransform="translate(4.9636835,4.963684)" />
    <linearGradient
       inkscape:collect="always"
       xlink:href="#linearGradient38"
       id="linearGradient10"
       x1="1769.5532"
       y1="955.50909"
       x2="-340.01233"
       y2="1831.5992"
       gradientUnits="userSpaceOnUse"
       gradientTransform="translate(4.9636835,4.963684)" />
    <linearGradient
       inkscape:collect="always"
       xlink:href="#linearGradient26"
       id="linearGradient13"
       x1="379.7218"
       y1="282.92996"
       x2="1923.4274"
       y2="1310.4125"
       gradientUnits="userSpaceOnUse"
       gradientTransform="translate(4.9636835,4.963684)" />
    <linearGradient
       inkscape:collect="always"
       xlink:href="#linearGradient14"
       id="linearGradient15"
       x1="570.82361"
       y1="-19.854734"
       x2="1203.6932"
       y2="776.81647"
       gradientUnits="userSpaceOnUse"
       gradientTransform="translate(4.9636835,4.963684)" />
    <linearGradient
       inkscape:collect="always"
       xlink:href="#linearGradient23"
       id="linearGradient18"
       x1="1525.0317"
       y1="591.41046"
       x2="-1674.2006"
       y2="5633.3164"
       gradientUnits="userSpaceOnUse"
       gradientTransform="translate(4.9636835,4.963684)" />
    <linearGradient
       inkscape:collect="always"
       xlink:href="#linearGradient23"
       id="linearGradient21"
       x1="924.84662"
       y1="1135.4379"
       x2="-228.14053"
       y2="-544.0274"
       gradientUnits="userSpaceOnUse"
       gradientTransform="translate(4.9636835,4.963684)" />
    <linearGradient
       inkscape:collect="always"
       xlink:href="#linearGradient23"
       id="linearGradient22"
       x1="842.36505"
       y1="1400.4319"
       x2="50.892887"
       y2="2170.845"
       gradientUnits="userSpaceOnUse" />
  </defs>
  <sodipodi:namedview
     id="namedview7"
     pagecolor="#505050"
     bordercolor="#eeeeee"
     borderopacity="1"
     inkscape:showpageshadow="0"
     inkscape:pageopacity="0"
     inkscape:pagecheckerboard="0"
     inkscape:deskcolor="#505050"
     inkscape:zoom="0.56982422"
     inkscape:cx="561.57669"
     inkscape:cy="427.32476"
     inkscape:window-width="2560"
     inkscape:window-height="1369"
     inkscape:window-x="2552"
     inkscape:window-y="-8"
     inkscape:window-maximized="1"
     inkscape:current-layer="svg7" />
  <path
     style="display:block;fill:#333333;fill-opacity:1;stroke-width:2"
     id="rect25"
     width="1642.3677"
     height="1621.0996"
     x="196.06551"
     y="201.02919"
     sodipodi:type="rect"
     inkscape:path-effect="#path-effect26"
     d="m 593.1602,201.02919 h 848.1783 c 219.9904,0 397.0947,177.10423 397.0947,397.0947 v 826.91021 c 0,219.9905 -177.1043,397.0947 -397.0947,397.0947 H 593.1602 c -219.99046,0 -397.09469,-177.1042 -397.09469,-397.0947 V 598.12389 c 0,-219.99047 177.10423,-397.0947 397.09469,-397.0947 z"
     ry="397.0947"
     transform="translate(6.7506561,12.421005)" />
  <path
     fill="rgb(235,74,38)"
     d="m 1466.1737,638.32268 c 39.94,-5.69 52.01,23.647 48.46,57.699 -4.31,41.394 -15.85,89.213 -36.19,125.73 -47.7,85.611 -132.98,141.57 -227.42,163.061 -4.62,1.053 -23.43,4.363 -25.55,7.459 -11.78,17.20202 -35.03,81.58202 -42.71,97.09202 63.56,20.45 98.47,98.92 86.01,161.87 -15.95,80.6 -83.72,135.73 -165.83,135.67 -15.07,-0.01 -29.18,-2.82 -43.97,-3.24 -4.44,8.37 -8.83,20.68 -12.67,29.92 -14.49,33.82 -27.38,72.32 -48.59001,102.57 -42.79401,61.02 -125.27901,66.02 -182.17701,21.97 -24.207,-18.57 -39.836,-46.18 -43.309,-76.49 -6.138,-50.93 24.329,-93.95 76.375,-99.36 46.361,1.69 76.999,37.14 65.301,83.77 -7.666,30.56 -41.619,48.19 -71.253,43.45 -5.243,-0.84 -17.766,-9.37 -21.845,-7.03 -1.498,4.57 -0.086,8.2 2.256,12.37 10.637,18.92 26.529,31.48 47.026,37.9 22.195,7.01 46.267,4.89 66.896,-5.89 12.585,-6.69 24.88801,-17.32 33.47301,-28.7 15.82,-20.95 48.90701,-97.14 56.92701,-123.54 -21.17,-9.21 -41.36301,-18.97 -59.07701,-33.73 -41.54601,-33.55 -62.56801,-66.67 -76.83301,-117.79 -18.671,-66.9 -5.071,-143.63 38.406,-198.67 56.91501,-72.05102 155.18402,-100.61502 241.91402,-116.26302 16.82,-3.033 37.02,-7.713 53.93,-9.286 3.42,-13.059 9.86,-25.843 14.99,-38.179 25.24,-60.712 52.45,-119.866 104.19,-162.842 35.87,-29.8 73.62,-53.641 121.27,-59.521 z m -313.97,442.39102 c 4.73,-13.48 32.94,-77.102 32.07,-83.35302 -3.57,-0.567 -3.64,-0.476 -7.06,-0.121 -25.41,4.71702 -54.17,8.64402 -79.08,14.72402 -54.61,14.02 -112.98901,39.57 -146.24402,87.03 -26.501,37.83 -35.092,79.33 -26.112,124.44 10.683,53.66 62.93801,104.8 114.07602,121.42 9.96,-20.67 19.56,-46.59 29.07,-68.12 4.13,-9.35 18.75,-41.24 21.23,-49.07 10.7,-24.69 23.3,-52.34 32.95,-77.26 -26.91,-4.28 -51.43,-3.63 -73.48,12.28 -28.13,20.3 -37.72,49.21 -31.32,82.45 1.7,8.78 8.43,20.35 6.98,27.96 -7.33,7.27 -17.26,-6.97 -20.563,-12.55 -58.87002,-99.45 36.143,-202.22 141.053,-181.28 2.15,0.44 4.3,0.92 6.43,1.45 z m 112.55,-189.70402 c 12.1,-2.981 29.14,-4.46 38.97,-7.593 34.61,-7.372 80.82,-29.193 108.75,-50.202 19.75,-14.858 60.72,-56.542 53.22,-84.67 -5.85,-21.942 -22.23,-23.947 -41.74,-23.195 -52.25,10.238 -93.19,50.391 -122.41,92.874 -20.5,29.82 -23.92,41.423 -36.79,72.786 z m -191.88,464.05402 c 14.98,0.48 28.7,0.56 43.45,-3.26 26.65,-6.92 53.49,-28.94 67.85,-51.98 15.52,-24.91 18.23,-52.48 10.31,-80.51 -7.54,-26.67 -21.5,-41.13 -43.31,-57 -17.67,41.41 -35.08,82.92 -52.25,124.54 -7.38,17.84 -22.56,50.61 -26.05,68.21 z"
     id="path1"
     style="fill:url(#linearGradient18);fill-opacity:1" />
  <path
     fill="rgb(235,74,38)"
     d="m 478.04368,408.74268 c 8.994,15.084 15.391,27.742 26.024,42.287 69.328,94.837 194.978,158.44 303.802,196.822 1.383,34.295 0.22,77.107 0.222,111.88 l 0.336,163.389 c -12.163,-0.285 -22.073,0.583 -34.051,2.373 -14.535,-7.267 -26.752,-18.962 -44.233,-26.946 -52.671,-24.055 -107.747,-42.21 -154.65,-77.041 -2.56,-1.835 -5.09,-3.71 -7.59,-5.625 -43.719,-33.592 -75.483,-77.514 -89.176,-131.394 -3.636,-14.306 -5.542,-31.365 -7.478,-46.203 37.525,42.925 85.09,75.896 138.453,95.972 9.906,3.785 66.46,24.12 73.149,21.137 -1.465,-2.186 -48.298,-27.927 -54.793,-31.892 -114.464,-69.895 -187.398,-175.917 -150.015,-314.759 z"
     id="path2"
     style="fill:url(#linearGradient21);fill-opacity:1" />
  <path
     fill="rgb(4,180,210)"
     d="m 1547.3937,660.91268 c 20.53,5.977 43.9,29.41 57.22,45.92 43.75,1.244 76.15,8.185 112.2,33.245 -21.92,2.8 -55.69,9.781 -75.88,18.532 -16.51,7.158 -56.77,32.914 -68.18,44.909 -59.72,62.83 -67.76,155.556 -84.69,236.66502 -9.24,46.49 -22.86,92 -40.69,135.93 -41.41,101.91 -110.12,171.32 -211.12,214.02 -6.74,2.63 -57.53,18.9 -61.5,18.21 l 0.03,-1.12 c 27.14,-6.45 63.35,-32.69 82.05,-52.89 31.89,-34.44 55.4,-89.95 52.33,-137.36 -2.82,-43.48 -22.55,-91.18 -54.35,-121.68 -8.27,-7.93 -17.48,-13.23 -25.91,-20.78 l -0.87,-0.78 c 4.37,-14.26 14.84,-38.19 20.58,-53.05 152.5,-32.97402 275.84,-137.06102 299.79,-297.90502 2.37,-15.944 3.88,-46.869 -1.01,-61.866 z"
     id="path3"
     style="fill:url(#linearGradient13);fill-opacity:1" />
  <path
     fill="rgb(4,180,210)"
     d="m 894.30068,413.61368 c 5.462,10.376 8.913,22.924 14.082,33.903 14.685,30.493 33.264,58.952 55.27401,84.663 47.13701,54.487 106.61701,96.654 161.54701,142.505 46.22,38.583 80.99,87.741 93.44,147.55 -7.56,15.888 -12.52,30.753 -18.1,47.385 -16.97,1.149 -32.14,4.132 -48.8,7.503 -10.67,3.224 -21.81,4.252 -32.52,6.778 -14.52,3.422 -30.67,7.963 -44.73,12.866 11.11,-109.134 -44.86,-189.806 -142.53002,-234.708 -26.178,-12.035 -53.955,-24.714 -81.584,-32.75 -0.608,-3.102 -1.12,-6.222 -1.534,-9.355 -2.407,-18.86 -2.016,-43.436 -2.267,-62.514 -0.634,-48.04 18.329,-106.152 47.722,-143.826 z"
     id="path4"
     style="fill:url(#linearGradient15);fill-opacity:1" />
  <path
     fill="rgb(4,180,210)"
     d="m 849.69268,1189.8437 c 0.702,0.98 5.572,34.8 6.988,39.75 6.18,21.61 18.004,50.3 28.785,68.56 6.498,11.01 29.005,36.91 29.92,41.9 l -1.78,2.14 c -6.476,2.43 -14.618,-2.24 -20.98,-4.82 -78.687,-31.86 -150.234,27.08 -155.773,106.85 -9.969,13.54 -39.025,42.56 -52.357,55.31 -54.778,52.38 -122.235,117.79 -197.816,135.88 -38.751,9.27 -74.076,-3.2 -106.395,-23.73 15.281,-3.53 33.902,-13.2 48.623,-19 70.558,-27.78 135.261,-57.32 197.844,-100.91 29.467,-24.13 51.995,-38.26 77.221,-68.53 -47.428,33.34 -96.32,63.74 -148.607,89.11 -7.315,3.55 -17.501,5.91 -25.339,8.61 -28.015,9.65 -57.028,18.16 -86.864,18.72 -22.512,0.47 -53.075,-7.55 -72.609,-18.86 -8.376,-4.85 -22.297,-18.77 -29.358,-25.75 90.501,-13.48 185.602,-37.11 268.799,-74.37 81.929,-36.7 161.615,-91.63 208.027,-169.83 11.324,-19.08 23.927,-40.26 31.671,-61.03 z"
     id="path5"
     style="fill:url(#linearGradient10);fill-opacity:1" />
  <path
     fill="rgb(4,180,210)"
     d="m 842.98768,662.14768 c 10.448,3.072 23.935,8.201 34.064,12.125 3.061,4.594 7.009,12.366 9.693,17.401 29.418,55.182 99.49001,67.25 130.34902,121.871 13.2,23.291 16.33,50.957 8.67,76.608 -2.19,7.584 -10.61,28.253 -16.65,31.62 -1.08,-2.814 -0.39,-10.166 -0.47,-13.75 -0.31,-16.052 -4.598,-31.775 -12.47201,-45.766 -24.447,-42.694 -72.85401,-56.656 -117.24801,-68.592 l -0.623,203.397 c 0.309,14.58202 0.848,25.28202 -2.871,39.78202 -6.029,23.51 -29.318,43.95 -49.476,55.89 -23.499,14.04 -64.371,20.66 -90.506,12.06 -76.09,-25.04 -52.193,-108.49102 7.959,-135.11802 38.677,-17.121 61.055,-18.297 99.161,-4.837 0.459,-10.981 0.548,-22.834 0.522,-33.873 -0.214,-89.341 1.964,-179.551 -0.102,-268.818 z"
     id="path6"
     style="fill:url(#linearGradient8);fill-opacity:1" />
  <path
     fill="rgb(235,74,38)"
     d="M 730.68 1459.61 C 732.666 1461.45 738.519 1487.4 739.686 1491.97 C 717.908 1531.53 672.109 1596.39 636.085 1622.98 C 610.873 1641.58 585.088 1647.87 554.114 1642.87 L 542.16 1640.02 C 556.698 1627.75 572.644 1615.46 587.515 1603.04 C 642.109 1557.45 685.301 1514.36 730.68 1459.61 z"
     id="path7"
     style="fill:url(#linearGradient22);fill-opacity:1"
     transform="translate(0,0)" />
</svg>
